HIERARCHY
ROOT Hips
{
	OFFSET 0.000000 0.000000 0.000000
	CHANNELS 6 Xposition Yposition Zposition Zrotation Yrotation Xrotation 
	JOINT LHipJoint
	{
		OFFSET 0.000000 0.000000 0.000000
		CHANNELS 3 Zrotation Yrotation Xrotation
		JOINT LeftUpLeg
		{
			OFFSET 1.363060 -1.794630 0.839290
			CHANNELS 3 Zrotation Yrotation Xrotation
			JOINT LeftLeg
			{
				OFFSET 2.448110 -6.726130 0.000000
				CHANNELS 3 Zrotation Yrotation Xrotation
				JOINT LeftFoot
				{
					OFFSET 2.562200 -7.039590 0.000000
					CHANNELS 3 Zrotation Yrotation Xrotation
					JOINT LeftToeBase
					{
						OFFSET 0.157640 -0.433110 2.322550
						CHANNELS 3 Zrotation Yrotation Xrotation
						End Site
						{
							OFFSET 0.000000 0.000000 0.000000
						}
					}
				}
			}
		}
	}
	JOINT RHipJoint
	{
		OFFSET 0.000000 0.000000 0.000000
		CHANNELS 3 Zrotation Yrotation Xrotation
		JOINT RightUpLeg
		{
			OFFSET -1.305520 -1.794630 0.839290
			CHANNELS 3 Zrotation Yrotation Xrotation
			JOINT RightLeg
			{
				OFFSET -2.542530 -6.985550 0.000000
				CHANNELS 3 Zrotation Yrotation Xrotation
				JOINT RightFoot
				{
					OFFSET -2.568260 -7.056230 0.000000
					CHANNELS 3 Zrotation Yrotation Xrotation
					JOINT RightToeBase
					{
						OFFSET -0.164730 -0.452590 2.363150
						CHANNELS 3 Zrotation Yrotation Xrotation
						End Site
						{
							OFFSET 0.000000 0.000000 0.000000
						}
					}
				}
			}
		}
	}
	JOINT LowerBack
	{
		OFFSET 0.000000 0.000000 0.000000
		CHANNELS 3 Zrotation Yrotation Xrotation
		JOINT Spine
		{
			OFFSET 0.028270 2.035590 -0.193380
			CHANNELS 3 Zrotation Yrotation Xrotation
			JOINT Spine1
			{
				OFFSET 0.056720 2.048850 -0.042750
				CHANNELS 3 Zrotation Yrotation Xrotation
				JOINT Neck
				{
					OFFSET 0.000000 0.000000 0.000000
					CHANNELS 3 Zrotation Yrotation Xrotation
					JOINT Neck1
					{
						OFFSET -0.054170 1.746240 0.172020
						CHANNELS 3 Zrotation Yrotation Xrotation
						JOINT Head
						{
							OFFSET 0.104070 1.761360 -0.123970
							CHANNELS 3 Zrotation Yrotation Xrotation
							End Site
							{
								OFFSET 0.000000 0.000000 0.000000
							}
						}
					}
				}
				JOINT LeftShoulder
				{
					OFFSET 0.000000 0.000000 0.000000
					CHANNELS 3 Zrotation Yrotation Xrotation
					JOINT LeftArm
					{
						OFFSET 3.362410 1.200890 -0.311210
						CHANNELS 3 Zrotation Yrotation Xrotation
						JOINT LeftForeArm
						{
							OFFSET 4.983000 -0.000000 -0.000000
							CHANNELS 3 Zrotation Yrotation Xrotation
							JOINT LeftHand
							{
								OFFSET 3.483560 -0.000000 -0.000000
								CHANNELS 3 Zrotation Yrotation Xrotation
								JOINT LeftFingerBase
								{
									OFFSET 0.000000 0.000000 0.000000
									CHANNELS 3 Zrotation Yrotation Xrotation
									JOINT LeftHandIndex1
									{
										OFFSET 0.715260 -0.000000 -0.000000
										CHANNELS 3 Zrotation Yrotation Xrotation
										End Site
										{
											OFFSET 0.000000 0.000000 0.000000
										}
									}
								}
								JOINT LThumb
								{
									OFFSET 0.000000 0.000000 0.000000
									CHANNELS 3 Zrotation Yrotation Xrotation
									End Site
									{
										OFFSET 0.000000 0.000000 0.000000
									}
								}
							}
						}
					}
				}
				JOINT RightShoulder
				{
					OFFSET 0.000000 0.000000 0.000000
					CHANNELS 3 Zrotation Yrotation Xrotation
					JOINT RightArm
					{
						OFFSET -3.136600 1.374050 -0.404650
						CHANNELS 3 Zrotation Yrotation Xrotation
						JOINT RightForeArm
						{
							OFFSET -5.241900 -0.000000 -0.000000
							CHANNELS 3 Zrotation Yrotation Xrotation
							JOINT RightHand
							{
								OFFSET -3.444170 -0.000000 -0.000000
								CHANNELS 3 Zrotation Yrotation Xrotation
								JOINT RightFingerBase
								{
									OFFSET 0.000000 0.000000 0.000000
									CHANNELS 3 Zrotation Yrotation Xrotation
									JOINT RightHandIndex1
									{
										OFFSET -0.622530 -0.000000 -0.000000
										CHANNELS 3 Zrotation Yrotation Xrotation
										End Site
										{
											OFFSET 0.000000 0.000000 0.000000
										}
									}
								}
								JOINT RThumb
								{
									OFFSET 0.000000 0.000000 0.000000
									CHANNELS 3 Zrotation Yrotation Xrotation
									End Site
									{
										OFFSET 0.000000 0.000000 0.000000
									}
								}
							}
						}
					}
				}
			}
		}
	}
}
MOTION
Frames: 6
Frame Time: 0.033333
-0.044627 16.459688 -0.044627 -3.268429 -3.193283 4.072415 -2.066435 18.698359 3.356315 -16.285999 -6.135326 -14.615606 -8.576803 -10.297319 -28.250470 5.151976 20.578895 49.554562 0.000000 0.000000 0.000000 -2.900591 -21.528828 -6.080239 31.798930 3.960778 -2.874631 -2.009384 -4.732265 21.084560 -0.584386 11.161812 -28.519557 0.000000 0.000000 0.000000 1.840002 0.730365 5.796152 2.799377 0.420108 13.813807 0.191289 1.729634 -11.035721 5.377822 -0.834772 -8.997650 -1.943679 -0.155538 -1.374976 0.000000 0.000000 0.000000 0.340845 11.646427 8.724424 -69.333860 -3.765668 20.905540 -17.592360 -76.279802 0.492627 1.638090 -14.459268 0.240984 1.678747 -14.460443 0.000000 0.000000 0.000000 0.000000 0.000000 0.000000 0.000000 -5.218467 -11.015625 8.136014 66.751957 5.225048 18.527348 18.177419 74.491200 0.346352 -0.787188 11.975465 0.170897 -0.807497 11.977900 0.000000 0.000000 0.000000 0.000000 0.000000 0.000000 0.000000 
-0.036481 16.489020 0.112571 -2.908635 -3.233082 4.189075 -1.762555 18.753764 3.207696 -17.144634 -6.039185 -14.096550 -8.420665 -10.035591 -27.427145 4.510355 19.602295 47.303709 0.000000 0.000000 0.000000 -2.655095 -21.568494 -5.720318 31.263409 4.795055 -3.723321 -2.790389 -5.032575 22.981901 -0.561688 11.136728 -28.603034 0.000000 0.000000 0.000000 1.644288 0.757609 5.653981 2.639122 0.404638 13.833793 0.183587 1.693147 -11.134437 5.280657 -0.813857 -8.867532 -1.859880 -0.147591 -1.324264 0.000000 0.000000 0.000000 0.264551 11.686198 8.735611 -69.260895 -3.744948 20.995340 -17.804240 -76.125703 0.498422 1.575157 -14.419719 0.243986 1.614391 -14.421288 0.000000 0.000000 0.000000 0.000000 0.000000 0.000000 0.000000 -5.061208 -11.176800 8.118730 66.612803 5.174966 18.535552 18.321606 74.297833 0.345583 -0.764874 11.934507 0.170546 -0.784837 11.936995 0.000000 0.000000 0.000000 0.000000 0.000000 0.000000 0.000000 
-0.026081 16.520172 0.269173 -2.551334 -3.245458 4.313667 -1.488681 18.785550 3.034521 -17.970193 -5.954334 -13.608398 -8.264668 -9.748830 -26.510865 3.911525 18.586848 44.985286 0.000000 0.000000 0.000000 -2.387179 -21.545998 -5.333986 30.647298 5.603643 -4.590040 -3.501939 -5.315145 24.759549 -0.519241 11.033025 -28.566643 0.000000 0.000000 0.000000 1.453323 0.774630 5.504197 2.482909 0.380053 13.849835 0.176732 1.648274 -11.231862 5.183981 -0.793294 -8.736228 -1.777272 -0.139881 -1.273537 0.000000 0.000000 0.000000 0.187845 11.721566 8.747976 -69.187905 -3.725245 21.083473 -18.016559 -75.970333 0.504123 1.512487 -14.379746 0.246939 1.550314 -14.381700 0.000000 0.000000 0.000000 0.000000 0.000000 0.000000 0.000000 -4.904716 -11.341595 8.101042 66.472829 5.124017 18.542505 18.465312 74.104154 0.344780 -0.742857 11.893426 0.170177 -0.762481 11.895964 0.000000 0.000000 0.000000 0.000000 0.000000 0.000000 0.000000 
-0.013476 16.552696 0.424776 -2.200560 -3.232139 4.443153 -1.244365 18.799095 2.840748 -18.758203 -5.881684 -13.154882 -8.111990 -9.437326 -25.507755 3.360247 17.543894 42.620842 0.000000 0.000000 0.000000 -2.104890 -21.468444 -4.928903 29.963877 6.371898 -5.460130 -4.143309 -5.583621 26.412346 -0.460428 10.861929 -28.421615 0.000000 0.000000 0.000000 1.270455 0.781572 5.349955 2.331681 0.346826 13.862843 0.170160 1.595668 -11.328098 5.087639 -0.773074 -8.603757 -1.695814 -0.132401 -1.222899 0.000000 0.000000 0.000000 0.110604 11.752970 8.761375 -69.114882 -3.706498 21.169900 -18.229219 -75.813730 0.509730 1.450108 -14.339352 0.249844 1.486546 -14.341681 0.000000 0.000000 0.000000 0.000000 0.000000 0.000000 0.000000 -4.749169 -11.509601 8.082935 66.332137 5.072434 18.548225 18.608507 73.910159 0.343943 -0.721137 11.852217 0.169791 -0.740429 11.854803 0.000000 0.000000 0.000000 0.000000 0.000000 0.000000 0.000000 
0.000766 16.586184 0.579018 -1.859411 -3.195662 4.574947 -1.029047 18.799056 2.630896 -19.505336 -5.822461 -12.738969 -7.959074 -9.102903 -24.426650 2.858363 16.483611 40.234040 0.000000 0.000000 0.000000 -1.814598 -21.343273 -4.512097 29.225339 7.088959 -6.321504 -4.711120 -5.843679 27.940391 -0.388179 10.632922 -28.179780 0.000000 0.000000 0.000000 1.098150 0.778975 5.193941 2.186066 0.305670 13.873612 0.163388 1.536140 -11.423240 4.991511 -0.753177 -8.470139 -1.615434 -0.125138 -1.172445 0.000000 0.000000 0.000000 0.032738 11.780927 8.775670 -69.041803 -3.688628 21.254599 -18.442131 -75.655929 0.515243 1.388043 -14.298538 0.252700 1.423110 -14.301233 0.000000 0.000000 0.000000 0.000000 0.000000 0.000000 0.000000 -4.594692 -11.680361 8.064405 66.190817 5.020446 18.552740 18.751168 73.715833 0.343073 -0.699714 11.810875 0.169388 -0.718680 11.813508 0.000000 0.000000 0.000000 0.000000 0.000000 0.000000 0.000000 
0.017171 16.620191 0.732165 -1.529421 -3.138758 4.706265 -0.840504 18.791624 2.407998 -20.212397 -5.775080 -12.359636 -7.814646 -8.744272 -23.271593 2.405209 15.414271 37.833211 0.000000 0.000000 0.000000 -1.522138 -21.179801 -4.088853 28.446193 7.749409 -7.164070 -5.220108 -6.095104 29.351110 -0.306784 10.358673 -27.853076 0.000000 0.000000 0.000000 0.938235 0.767368 5.038610 2.043851 0.257467 13.882863 0.157581 1.470324 -11.514342 4.897200 -0.733941 -8.337191 -1.537222 -0.118178 -1.123029 0.000000 0.000000 0.000000 -0.043124 11.803486 8.790513 -68.969947 -3.673041 21.335045 -18.645591 -75.503888 0.520447 1.329113 -14.259332 0.255396 1.362888 -14.262368 0.000000 0.000000 0.000000 0.000000 0.000000 0.000000 0.000000 -4.444277 -11.850075 8.045062 66.053104 4.969064 18.556995 18.887157 73.529831 0.342239 -0.679446 11.771449 0.169000 -0.698106 11.774124 0.000000 0.000000 0.000000 0.000000 0.000000 0.000000 0.000000 
